<svg width="49" height="50" viewBox="0 0 49 50" fill="none" xmlns="http://www.w3.org/2000/svg">
<path d="M31.97 21.4691C32.2816 21.9365 32.6244 22.4039 32.936 22.8713C33.3566 23.5101 33.7773 24.1333 34.1979 24.7721C34.5251 25.2706 34.8679 25.7536 35.2106 26.2522C35.4911 26.6572 35.7403 27.0779 36.0208 27.4986C36.2856 27.9036 36.6128 28.2776 36.8465 28.6982C36.9712 28.9163 37.0958 28.9008 37.2828 28.9008C39.2458 28.9008 41.2245 28.9008 43.1875 28.9008C43.4836 28.9008 43.4836 28.9008 43.4836 28.6047C43.4836 19.1633 43.4836 9.70629 43.4836 0.264856C43.4836 0.124637 43.4368 0.0467407 43.3122 0.0155809C43.2499 9.50691e-07 43.172 0 43.1096 0C41.1777 0 39.2302 0 37.2983 0C37.0335 0 37.0179 -2.8602e-06 37.0179 0.264856C37.0179 1.76053 37.0179 3.2562 37.0179 4.75188C37.0179 9.47259 37.0179 14.1777 37.0179 18.8984C37.0179 18.9763 36.9867 19.0542 36.9712 19.1321C36.6907 19.1166 36.644 18.8829 36.5349 18.7426C36.3947 18.5713 36.3012 18.3687 36.1766 18.1818C36.0052 17.9169 35.8182 17.6676 35.6313 17.4184C35.5066 17.2314 35.3976 17.0289 35.2729 16.8419C35.1016 16.5926 34.9146 16.3433 34.7432 16.0941C34.603 15.8915 34.4939 15.689 34.3537 15.4864C34.2291 15.2995 34.0889 15.1125 33.9642 14.91C33.7929 14.6607 33.6526 14.3958 33.4813 14.1466C33.232 13.7726 32.9827 13.4143 32.7178 13.0404C32.5776 12.8379 32.453 12.6509 32.3128 12.4484C32.1102 12.1523 31.9077 11.8719 31.7051 11.5759C31.5805 11.3889 31.4559 11.1864 31.3312 10.9994C31.191 10.7969 31.0508 10.6099 30.9261 10.423C30.7548 10.1737 30.6145 9.90883 30.4432 9.65955C30.2406 9.34795 30.0069 9.03635 29.8044 8.72476C29.633 8.47548 29.4616 8.2262 29.2903 7.97692C29.1656 7.80554 29.041 7.64974 28.9319 7.47836C28.745 7.19792 28.5736 6.91749 28.4022 6.63705C28.2776 6.45009 28.1529 6.27871 28.0283 6.09175C27.9348 5.93595 27.8725 5.76457 27.7634 5.62435C27.6388 5.43739 27.483 5.28159 27.3583 5.11021C27.1714 4.84535 27 4.56492 26.8286 4.30006C26.6728 4.06636 26.5014 3.86382 26.3612 3.63012C26.1898 3.36526 26.0496 3.1004 25.8782 2.83554C25.7069 2.57068 25.5043 2.30583 25.3329 2.04097C25.146 1.76053 24.959 1.46451 24.7565 1.16849C24.5695 0.903635 24.3982 0.623195 24.2112 0.358336C24.0554 0.140217 23.8684 0 23.5568 0C22.3883 0.0155799 21.2199 9.50691e-07 20.0514 0.0155809C18.8829 0.0311608 17.7144 -0.0934824 16.5615 0.186956C16.3278 0.249276 16.0785 0.264858 15.8448 0.296018C15.3462 0.373917 14.8477 0.451816 14.3335 0.514135C14.0842 0.545295 13.835 0.592037 13.5701 0.623197C13.3364 0.654357 13.1183 0.701094 12.8846 0.732253C12.5886 0.778993 12.2926 0.810156 11.981 0.856896C11.7784 0.888056 11.5759 0.919216 11.3733 0.950376C10.8592 1.02828 10.3451 1.10618 9.83093 1.18407C9.58165 1.21523 9.33237 1.26197 9.08309 1.29313C8.78708 1.33987 8.50664 1.38661 8.21062 1.43335C7.7588 1.49567 7.30698 1.57357 6.87075 1.63589C6.71495 1.65147 6.55915 1.66705 6.41893 1.68263C6.41893 1.69821 6.41893 1.71379 6.41893 1.72937C11.1864 1.72937 15.9538 1.72937 20.7369 1.72937C20.7369 10.2048 20.7369 18.6492 20.7369 27.1246C15.985 27.1246 11.2643 27.1246 6.52799 27.1246C6.54357 27.1714 6.57473 27.187 6.59031 27.187C6.91748 27.2337 7.26024 27.2804 7.58742 27.3272C7.63416 27.3272 7.6809 27.3272 7.71206 27.3428C8.08598 27.4051 8.4599 27.483 8.83381 27.5453C8.94287 27.5609 9.05193 27.5453 9.14541 27.5609C9.50375 27.6232 9.86209 27.7011 10.236 27.7634C10.5788 27.8102 10.9059 27.8413 11.2487 27.8881H11.2643C11.5915 27.9504 11.9186 28.0283 12.2458 28.0906C12.4484 28.1218 12.6509 28.1062 12.8534 28.1841C13.1339 28.2776 13.4299 28.2776 13.7259 28.3243C14.0687 28.371 14.3958 28.4022 14.7386 28.4489H14.7542C15.0969 28.5268 15.4397 28.6047 15.7825 28.6671C15.985 28.6982 16.2031 28.6982 16.4057 28.7605C16.7328 28.854 17.1068 28.8852 17.4651 28.8852C19.5528 28.9008 21.6561 28.8852 23.7438 28.8852C23.8217 28.8852 23.884 28.8852 23.9775 28.8696C23.9775 22.4974 23.9775 16.1564 23.9775 9.73745C24.0866 9.79977 24.1645 9.83093 24.1956 9.89325C24.3203 10.0802 24.4293 10.2672 24.554 10.4541C24.8032 10.828 25.0681 11.1864 25.3018 11.5447C25.4264 11.7317 25.5511 11.9498 25.6757 12.1368C25.8003 12.3237 25.9561 12.4951 26.0652 12.6665C26.2366 12.9313 26.3924 13.2118 26.5638 13.4611C26.7663 13.7571 26.9844 14.0375 27.187 14.3335C27.3583 14.5984 27.5141 14.8788 27.6855 15.1437C27.8881 15.4397 28.1062 15.7201 28.3087 16.0162C28.6982 16.6082 29.0877 17.2002 29.4772 17.7767C29.9134 18.4155 30.3497 19.0542 30.7859 19.693C31.2066 20.3006 31.5805 20.8927 31.97 21.4691Z" fill="black"/>
<path d="M1.40219 40.4455C1.57357 40.4455 1.62031 40.352 1.62031 40.2118C1.62031 40.0092 1.62031 39.8067 1.62031 39.6042C1.62031 39.09 1.62031 38.5759 1.62031 38.0773C1.62031 37.9371 1.57357 37.7813 1.57357 37.6411C1.57357 37.4385 1.58915 37.236 1.62031 37.0335C1.63589 36.9556 1.65147 36.8309 1.71379 36.7998C1.80727 36.753 1.88517 36.8309 1.90075 36.94C1.91633 36.9712 1.97865 36.9867 1.99423 37.0335C2.11887 37.1893 2.22793 37.3606 2.35257 37.5164C2.60185 37.7969 2.86671 38.0617 3.1004 38.3578C3.63012 38.9965 4.15984 39.6665 4.68956 40.3053C4.76746 40.3987 4.86094 40.4766 5.00115 40.4611C5.31275 40.4455 5.60877 40.4455 5.92037 40.4611C6.09175 40.4611 6.15407 40.4143 6.13849 40.2429C6.13849 39.4484 6.13849 38.6694 6.13849 37.8748C6.13849 36.8309 6.13849 35.7871 6.13849 34.7432C6.13849 34.4939 6.09175 34.4472 5.84247 34.4472C5.60877 34.4472 5.37507 34.4472 5.12579 34.4472C4.87652 34.4472 4.87652 34.4628 4.84536 34.7121C4.84536 34.7588 4.84536 34.8055 4.84536 34.8367C4.84536 35.3664 4.84536 35.8806 4.84536 36.4103C4.84536 36.9088 4.84536 37.3918 4.84536 37.8904C4.84536 37.9683 4.78304 38.0773 4.72072 38.1085C4.68956 38.1396 4.56492 38.0773 4.51818 38.015C4.09752 37.5164 3.69244 37.0179 3.27178 36.5193C2.96018 36.1298 2.63301 35.7403 2.30583 35.3664C2.13445 35.1639 1.97865 34.9302 1.79169 34.7432C1.68263 34.6186 1.58915 34.4628 1.37103 34.4628C1.07501 34.4784 0.763416 34.4628 0.451817 34.4628C0.311598 34.4628 0.249279 34.5407 0.249279 34.6965C0.249279 36.0052 0.249279 37.3139 0.249279 38.6226C0.249279 39.2458 0.249279 39.8534 0.249279 40.5078C0.685517 40.4455 1.04385 40.4455 1.40219 40.4455Z" fill="black"/>
<path d="M48.734 38.2487C48.6249 37.8748 48.3757 37.5788 48.0485 37.3607C47.9083 37.2672 47.9394 37.1893 48.0173 37.0646C48.1575 36.8465 48.3289 36.644 48.3912 36.4103C48.4536 36.161 48.4224 35.8962 48.4068 35.6313C48.3912 35.4911 48.3289 35.3509 48.251 35.2418C47.9862 34.8679 47.6122 34.6342 47.1604 34.5563C46.8021 34.494 46.4282 34.4472 46.0698 34.4472C45.3531 34.4316 44.6365 34.4472 43.9198 34.4316C43.7173 34.4316 43.6238 34.5251 43.6238 34.7121C43.6238 36.5193 43.6238 38.3422 43.6238 40.1495C43.6238 40.2429 43.6238 40.3364 43.6238 40.4611C43.7796 40.4611 43.9042 40.4611 44.0289 40.4611C44.4651 40.4611 44.8858 40.4766 45.322 40.4611C46.1633 40.4143 47.0358 40.6169 47.8615 40.2274C47.9706 40.165 48.0952 40.1339 48.2043 40.0404C48.5782 39.7288 48.7807 39.3393 48.7963 38.8563C48.7807 38.6538 48.7807 38.4357 48.734 38.2487ZM44.9636 35.6157C45.1662 35.6157 45.322 35.6157 45.4778 35.6157C45.8829 35.6157 46.3035 35.6001 46.7086 35.6157C46.9267 35.6157 47.176 35.8338 47.2072 36.052C47.2851 36.5038 47.1137 36.9244 46.5528 36.9088C46.1945 36.8933 45.8361 36.9556 45.4778 36.94C45.3376 36.94 45.1506 37.0179 45.026 36.8621C44.9948 36.8309 44.9636 36.7998 44.9636 36.7686C44.9481 36.3947 44.9636 36.0208 44.9636 35.6157ZM47.0046 39.2303C46.88 39.277 46.7398 39.3082 46.5995 39.3237C46.3814 39.3393 46.1633 39.3237 45.9452 39.3237C45.6959 39.3237 45.4311 39.3237 45.1818 39.3237C44.9948 39.3237 44.9325 39.2614 44.9325 39.0745C44.9325 38.7784 44.9481 38.498 44.9325 38.202C44.9325 38.0462 44.9948 37.9839 45.1506 37.9839C45.6647 37.9839 46.1789 37.9683 46.693 37.9839C46.989 37.9994 47.2851 38.2176 47.363 38.5759C47.4409 38.7784 47.2851 39.1368 47.0046 39.2303Z" fill="black"/>
<path d="M18.8829 39.2458C17.9792 39.2458 17.0756 39.2458 16.172 39.2458C15.9383 39.2458 15.7046 39.2458 15.4709 39.2147C15.3306 39.1991 15.2995 39.1056 15.4241 38.9966C15.6111 38.8252 15.8136 38.685 15.985 38.5136C16.5303 37.9994 17.06 37.4853 17.6053 36.9867C18.026 36.5972 18.4778 36.2233 18.8984 35.8494C19.0231 35.7404 19.1633 35.6157 19.1477 35.4132C19.1321 35.1795 19.1477 34.9458 19.1477 34.7121C19.1477 34.5095 19.0698 34.4316 18.8673 34.4316C18.6959 34.4316 18.5245 34.4316 18.3376 34.4316C16.7952 34.4316 15.2527 34.4316 13.7103 34.4316C13.5857 34.4316 13.5234 34.4784 13.5078 34.5874C13.4922 34.8523 13.4611 35.1327 13.4922 35.3976C13.5234 35.7404 13.5545 35.7248 13.8973 35.7248C14.8009 35.7248 15.7201 35.7248 16.6238 35.7248C16.7952 35.7248 16.951 35.7248 17.1223 35.7248C17.1379 35.7559 17.1535 35.7715 17.1691 35.8027C17.1223 35.865 17.0756 35.9429 17.0289 35.9896C16.8886 36.1143 16.7328 36.2233 16.5926 36.348C16.2654 36.6284 15.9383 36.9244 15.6267 37.2049C15.2372 37.5476 14.8477 37.8748 14.4737 38.202C14.1621 38.4668 13.8661 38.7473 13.5701 39.0121C13.3832 39.1835 13.1962 39.3549 13.2429 39.6509C13.2741 39.8379 13.2741 40.0092 13.2741 40.1962C13.2741 40.4143 13.2741 40.4455 13.5078 40.4455C15.2216 40.4455 16.9198 40.4455 18.6336 40.4455C18.805 40.4455 18.9919 40.4455 19.21 40.4455C19.21 40.1183 19.21 39.8067 19.21 39.5107C19.1633 39.2458 19.1633 39.2458 18.8829 39.2458Z" fill="black"/>
<path d="M9.23889 35.7248C10.1269 35.7248 10.9994 35.7248 11.8875 35.7248C12.0744 35.7248 12.1523 35.6469 12.1523 35.4599C12.1523 35.2106 12.1523 34.9613 12.1523 34.7121C12.1523 34.4472 12.1212 34.416 11.8719 34.416C10.5788 34.416 9.27005 34.416 7.97692 34.416C7.64974 34.416 7.603 34.4628 7.603 34.7276C7.603 36.5349 7.603 38.3578 7.603 40.165C7.603 40.2429 7.603 40.3364 7.603 40.4143C7.6809 40.4299 7.72764 40.4299 7.7588 40.4299C9.16099 40.4299 10.5788 40.4299 11.981 40.4299C12.1056 40.4299 12.1523 40.3676 12.1523 40.2429C12.1523 39.9937 12.1523 39.7444 12.1523 39.4951C12.1523 39.2458 12.1212 39.2147 11.8875 39.2147C11.0773 39.2147 10.2827 39.2147 9.47259 39.2147C9.36353 39.2147 9.25447 39.2147 9.16099 39.2147C9.02077 39.1991 8.94288 39.1212 8.94288 38.9654C8.94288 38.7005 8.94288 38.4512 8.94288 38.1864C8.94288 38.015 9.02077 37.9527 9.19215 37.9527C9.90883 37.9527 10.6411 37.9527 11.3578 37.9527C11.4357 37.9527 11.498 37.9527 11.607 37.9527C11.607 37.719 11.607 37.5165 11.607 37.2983C11.607 36.8154 11.607 36.8154 11.1241 36.8154C10.5009 36.8154 9.86209 36.8309 9.23889 36.8154C9.14541 36.8154 8.95845 36.7219 8.95845 36.6596C8.92729 36.348 8.94288 36.0364 8.94288 35.7248C9.06752 35.7403 9.14541 35.7248 9.23889 35.7248Z" fill="black"/>
<path d="M27.0156 40.4455C26.9377 40.2741 26.8754 40.1495 26.8286 40.0248C26.7351 39.8223 26.6417 39.6197 26.5482 39.4172C26.5014 39.2926 26.4703 39.1523 26.408 39.0277C26.3145 38.8096 26.1899 38.5915 26.0964 38.3733C26.0029 38.1552 25.925 37.9371 25.8315 37.719C25.738 37.5164 25.629 37.3295 25.5355 37.1269C25.4109 36.8621 25.3174 36.5817 25.2083 36.3168C25.1616 36.2077 25.1304 36.1143 25.0837 36.0052C25.0214 35.865 24.959 35.7248 24.8967 35.5845C24.8032 35.382 24.7253 35.1795 24.6319 34.9769C24.5851 34.8679 24.554 34.7276 24.4916 34.6342C24.4449 34.5563 24.3358 34.4472 24.2579 34.4472C23.884 34.4316 23.4945 34.4316 23.1206 34.4472C23.0271 34.4472 22.9025 34.5095 22.8713 34.5718C22.7311 34.8679 22.622 35.1639 22.513 35.4599C22.4662 35.5845 22.4351 35.7092 22.3728 35.8182C22.2793 36.0052 22.1546 36.1922 22.0767 36.3791C21.9521 36.6751 21.8431 36.9711 21.7184 37.2827C21.6717 37.4074 21.6249 37.532 21.5782 37.6411C21.5159 37.7657 21.438 37.8904 21.3912 38.015C21.3445 38.1396 21.3133 38.2799 21.2666 38.4045C21.1731 38.6226 21.0485 38.8252 20.955 39.0433C20.8615 39.2458 20.7992 39.4639 20.7213 39.6665C20.6746 39.7755 20.6278 39.9002 20.5655 40.0092C20.5032 40.1495 20.4409 40.2897 20.363 40.4455C20.8148 40.4455 21.2354 40.4455 21.6561 40.4455C21.6873 40.4455 21.7184 40.4143 21.734 40.3831C21.8431 40.1806 21.9677 39.9937 22.0456 39.7755C22.1079 39.6197 22.2014 39.5418 22.3572 39.5418C23.2452 39.5418 24.1333 39.5418 25.0214 39.5418C25.1772 39.5418 25.2706 39.6197 25.3174 39.7755C25.3797 39.9625 25.4732 40.165 25.5666 40.3364C25.5978 40.3831 25.6757 40.4299 25.7224 40.4455C26.1431 40.4455 26.5638 40.4455 27.0156 40.4455ZM24.3982 38.4201C23.9308 38.4201 23.4478 38.4201 22.9804 38.4201C22.9025 38.4201 22.7623 38.3889 22.7623 38.3578C22.7467 38.2487 22.7467 38.1241 22.7778 38.015C22.8713 37.7657 22.9804 37.5164 23.0894 37.2672C23.1206 37.1893 23.1673 37.1269 23.1985 37.049C23.3076 36.8309 23.401 36.5972 23.5101 36.3791C23.5568 36.2701 23.6192 36.1766 23.6659 36.0675C23.6971 36.0675 23.7282 36.0675 23.7594 36.0675C23.8373 36.2233 23.9152 36.3635 23.9931 36.5193C24.1021 36.753 24.2112 36.9711 24.3047 37.2048C24.3982 37.423 24.4761 37.6411 24.554 37.8592C24.5851 37.9527 24.6474 38.0617 24.663 38.1552C24.663 38.3889 24.6319 38.4201 24.3982 38.4201Z" fill="black"/>
<path d="M40.7103 39.7288C40.7727 39.9002 40.8506 40.056 40.9285 40.2118C40.9752 40.3053 41.0531 40.4299 41.131 40.4299C41.5361 40.4455 41.9412 40.4455 42.3618 40.4455C42.3462 40.3364 42.3462 40.2585 42.3151 40.1806C42.1748 39.8534 42.0346 39.5418 41.8944 39.2302C41.7698 38.9498 41.6607 38.6538 41.5361 38.3733C41.3959 38.0462 41.2556 37.7346 41.1154 37.4074C41.0219 37.2049 40.944 36.9867 40.8506 36.7842C40.7571 36.5817 40.648 36.3791 40.5701 36.161C40.4766 35.9273 40.3987 35.6936 40.3053 35.4599C40.2118 35.2106 40.1027 34.9613 39.9781 34.7276C39.9002 34.5874 39.8846 34.4005 39.6353 34.416C39.2926 34.4472 38.9498 34.416 38.607 34.416C38.5136 34.416 38.3889 34.4628 38.3266 34.5251C38.2331 34.6497 38.1708 34.79 38.1241 34.9458C37.9838 35.2729 37.8748 35.6001 37.7346 35.9273C37.532 36.4103 37.3139 36.8777 37.0958 37.3606C37.0023 37.5943 36.9088 37.828 36.8154 38.0462C36.644 38.4357 36.4882 38.8252 36.3168 39.2147C36.2077 39.4484 36.0987 39.6665 36.0052 39.9158C35.9429 40.0871 35.8806 40.2585 35.8182 40.4455C36.2856 40.4455 36.7375 40.4455 37.1581 40.4455C37.2516 40.2118 37.3295 39.9937 37.4386 39.7911C37.5165 39.6509 37.6099 39.5574 37.7969 39.5574C38.6694 39.5574 39.5418 39.5574 40.4143 39.5574C40.5545 39.5418 40.6636 39.5886 40.7103 39.7288ZM39.9158 38.4201C39.386 38.4201 38.8719 38.4201 38.3422 38.4201C38.2643 38.4201 38.1708 38.3422 38.0617 38.2799C38.3889 37.5476 38.7161 36.8465 39.0433 36.1298C39.0589 36.0987 39.1212 36.0831 39.1835 36.0519C39.3081 36.3324 39.4328 36.6128 39.5574 36.8933C39.7288 37.3139 39.9002 37.7346 40.0871 38.1396C40.1339 38.2799 40.056 38.4201 39.9158 38.4201Z" fill="black"/>
<path d="M30.5366 40.4455C31.9233 40.4455 33.3099 40.4455 34.6965 40.4455C34.8367 40.4455 34.8834 40.3676 34.8834 40.2741C34.8834 39.9937 34.899 39.7132 34.8834 39.4484C34.8834 39.3081 34.8055 39.2458 34.6497 39.2458C33.7773 39.2614 32.9048 39.2458 32.0323 39.2458C31.6896 39.2458 31.6896 39.2302 31.6896 38.8875C31.6896 37.4853 31.6896 36.0831 31.6896 34.6809C31.6896 34.5095 31.5961 34.416 31.4247 34.416C31.1443 34.416 30.8794 34.416 30.599 34.416C30.4432 34.416 30.3497 34.4784 30.3497 34.6497C30.3497 34.8523 30.3497 35.0392 30.3497 35.2418C30.3497 36.457 30.3497 37.6723 30.3497 38.8875C30.3497 39.4016 30.3497 39.9002 30.3497 40.4299C30.4587 40.4455 30.4899 40.4455 30.5366 40.4455Z" fill="black"/>
<path d="M33.6059 45.0883C33.3099 45.0883 33.0294 45.0883 32.749 45.0883C32.749 45.1506 32.749 45.1974 32.7334 45.2441C32.7178 45.3064 32.7178 45.3843 32.6867 45.3999C32.6399 45.4155 32.562 45.3999 32.5153 45.3532C32.3128 45.1818 32.0946 45.0727 31.8298 45.0571C31.4247 45.0416 31.0352 45.026 30.6613 45.2908C30.2562 45.5869 30.0069 45.9919 29.929 46.4749C29.8511 46.9735 29.929 47.472 30.2406 47.9083C30.3964 48.1264 30.5834 48.2978 30.8327 48.438C30.9573 48.5003 31.0819 48.5003 31.191 48.5626C31.5493 48.7652 31.8921 48.5938 32.2349 48.5003C32.3907 48.4536 32.5153 48.3289 32.6555 48.2354C32.8581 48.6873 32.4841 49.1702 32.0479 49.2326C31.8454 49.2637 31.6428 49.2481 31.4559 49.2326C31.3624 49.2326 31.2689 49.1858 31.191 49.1547C31.0508 49.1079 30.9261 49.0144 30.7859 48.9989C30.5834 48.9677 30.3808 48.9833 30.1783 48.9833C30.116 48.9833 30.0693 48.9989 29.9914 48.9989C30.0069 49.0768 30.0225 49.1391 30.0537 49.2014C30.2095 49.4974 30.4587 49.6999 30.7392 49.8557C30.895 49.9336 31.0975 49.9648 31.2845 49.9804C31.5649 49.996 31.8454 49.9648 32.1258 49.996C32.4374 50.0271 32.6867 49.8713 32.9048 49.7467C33.1852 49.5753 33.4034 49.2793 33.4968 48.9521C33.5592 48.7028 33.6059 48.438 33.6059 48.1731C33.6215 47.2072 33.6059 46.2256 33.6059 45.2597C33.6059 45.1974 33.6059 45.1506 33.6059 45.0883ZM32.4841 47.6278C32.2193 47.8927 31.8142 47.955 31.4403 47.7836C31.3312 47.7369 31.2066 47.7057 31.1131 47.6278C31.0352 47.5655 30.9885 47.4564 30.9106 47.3785C30.7548 47.2072 30.8171 46.989 30.8015 46.8177C30.8015 46.5995 30.7548 46.3814 30.9106 46.2256C31.0819 46.0387 31.2377 45.805 31.5493 45.8206C31.674 45.8206 31.783 45.8361 31.9077 45.8206C32.2504 45.7738 32.4374 46.0075 32.6088 46.2256C32.8581 46.5528 32.7957 47.3006 32.4841 47.6278Z" fill="black"/>
<path d="M47.9706 43.9354C47.9706 44.3716 47.9706 44.8234 47.9706 45.2597C47.9706 45.3064 47.9394 45.3687 47.9083 45.3999C47.8615 45.4155 47.7836 45.4155 47.7525 45.3843C47.5499 45.1506 47.2695 45.0571 46.9735 45.0571C46.7242 45.0571 46.4437 45.0104 46.2412 45.1039C45.9764 45.2129 45.6959 45.3687 45.5245 45.6492C45.3376 45.9296 45.1662 46.21 45.1974 46.5684C45.2129 46.8332 45.1974 47.1137 45.1974 47.3941C45.1974 47.4253 45.1974 47.472 45.2129 47.5032C45.322 47.6901 45.3999 47.9082 45.5401 48.064C45.7738 48.3289 46.0231 48.5938 46.4282 48.6405C46.5061 48.6405 46.5684 48.6872 46.6307 48.7028C46.7553 48.7184 46.8644 48.7184 46.989 48.7028C47.0514 48.7028 47.1137 48.6405 47.176 48.6405C47.4097 48.6561 47.5811 48.5159 47.7213 48.3912C47.8304 48.2666 47.8927 48.3289 47.9706 48.3601C47.9706 48.4691 47.9862 48.547 47.9862 48.6249C48.2354 48.6249 48.4847 48.6249 48.734 48.6249C48.734 46.989 48.734 45.3687 48.734 43.7484C48.4847 43.7484 48.251 43.7484 47.9862 43.7484C47.9862 43.8107 47.9706 43.873 47.9706 43.9354ZM47.6434 47.7057C47.5811 47.768 47.4876 47.8459 47.3941 47.8615C47.1604 47.8927 46.9735 48.0173 46.693 47.9082C46.4126 47.7992 46.1789 47.6434 46.0698 47.4097C45.9452 47.1293 45.8206 46.8332 46.0075 46.4905C46.101 46.3347 46.1477 46.1477 46.2879 46.0231C46.4126 45.914 46.5372 45.805 46.7242 45.8205C46.7709 45.8205 46.8177 45.7894 46.8644 45.7738C46.88 45.7582 46.9111 45.7426 46.9267 45.7426C47.0981 45.7894 47.2695 45.8205 47.4097 45.8984C47.5655 45.9919 47.7213 46.1166 47.8148 46.2724C47.9238 46.4282 47.955 46.6463 47.9862 46.7553C47.9862 47.176 47.8615 47.472 47.6434 47.7057Z" fill="black"/>
<path d="M14.7386 45.5401C14.5205 45.3064 14.3024 45.0571 13.944 45.0415C13.6792 45.026 13.3987 44.9948 13.1495 45.1506C12.9937 45.2441 12.8223 45.3064 12.6353 45.4155C12.6353 44.8546 12.6353 44.3093 12.6353 43.7484C12.3237 43.7484 12.0433 43.7484 11.7628 43.7484C11.7628 45.3843 11.7628 47.0046 11.7628 48.6093C12.0589 48.6093 12.3393 48.6093 12.6197 48.6093C12.6197 48.5314 12.6197 48.4535 12.6197 48.3912C12.6197 47.7992 12.6197 47.1916 12.6197 46.5995C12.6197 46.3658 12.6976 46.1633 12.869 46.0231C13.0092 45.8984 13.2118 45.8205 13.3832 45.7426C13.4143 45.7271 13.4766 45.7582 13.5234 45.7738C13.5545 45.7894 13.5857 45.8205 13.6013 45.8205C13.8038 45.8205 13.8973 45.9919 13.9596 46.1166C14.0531 46.3035 14.0687 46.5372 14.0842 46.7709C14.0998 47.3318 14.0842 47.8927 14.0842 48.4535C14.0842 48.5159 14.0842 48.5782 14.0998 48.6249C14.3647 48.6249 14.614 48.6249 14.8632 48.6249C14.8632 47.7213 14.8632 46.8177 14.8632 45.9296C14.8632 45.7894 14.8165 45.6336 14.7386 45.5401Z" fill="black"/>
<path d="M5.93595 45.3532C5.76457 45.2597 5.59319 45.135 5.40623 45.0883C5.15695 45.026 4.89209 45.0416 4.62724 45.0416C4.39354 45.0416 4.12868 45.0571 3.94172 45.1974C3.7236 45.3843 3.42758 45.4934 3.30294 45.805C3.1783 46.101 2.99134 46.3659 3.00692 46.7086C3.00692 46.8332 3.00692 46.9735 3.00692 47.0981C3.00692 47.3474 3.1004 47.5499 3.22504 47.768C3.42758 48.1264 3.67686 48.3912 4.06636 48.5315C4.36238 48.6405 4.64282 48.734 4.95441 48.734C5.17253 48.7184 5.39065 48.6561 5.59319 48.6249H5.60877C5.79573 48.5159 5.98269 48.4068 6.16965 48.2978C6.32545 48.2043 6.37219 48.0641 6.34103 47.9394C6.16965 47.8459 6.02943 47.768 5.88921 47.7057C5.82689 47.6901 5.74899 47.6901 5.68667 47.7213C5.45297 47.8304 5.23485 48.0017 4.95441 48.0017C4.76746 48.0017 4.61166 47.9862 4.4247 47.9083C4.17542 47.8148 4.0352 47.659 3.91056 47.472C3.77034 47.2539 3.8794 47.0669 4.12868 47.0669C4.96999 47.0669 5.81131 47.0669 6.65263 47.0669C6.7461 46.7242 6.68379 46.397 6.54357 46.1166C6.40335 45.8205 6.24755 45.5245 5.93595 45.3532ZM4.7363 46.4282C4.48702 46.4282 4.25332 46.4282 4.00404 46.4282C3.86382 46.4282 3.83266 46.3658 3.89498 46.2568C4.01962 46.0698 4.17542 45.9296 4.39354 45.805C4.64282 45.6647 4.8921 45.6959 5.12579 45.7271C5.35949 45.7426 5.56203 45.914 5.70225 46.1166C5.74899 46.1945 5.79573 46.2879 5.85805 46.4126C5.43739 46.4282 5.07906 46.4282 4.7363 46.4282Z" fill="black"/>
<path d="M23.401 46.8644C23.401 46.8177 23.401 46.8021 23.401 46.7709C23.3699 46.584 23.3543 46.3814 23.2764 46.2101C23.1985 46.0231 23.0739 45.8517 22.9492 45.6803C22.8402 45.5401 22.7155 45.3999 22.5597 45.3064C22.3104 45.1818 22.0767 45.0416 21.7807 45.0416C21.3445 45.026 20.9083 45.026 20.5188 45.2908C20.4409 45.3532 20.3474 45.3999 20.2695 45.4778C20.1604 45.5869 20.0358 45.7115 19.9579 45.8517C19.8644 46.0231 19.7242 46.2101 19.7242 46.397C19.7242 46.7709 19.6463 47.1448 19.8021 47.5188C19.88 47.7213 20.0202 47.8771 20.1293 48.0485C20.2383 48.2199 20.4097 48.3289 20.5967 48.438C20.8771 48.6094 21.1731 48.6561 21.4691 48.7184C21.6873 48.7496 21.9365 48.6561 22.1546 48.6094H22.1702C22.3416 48.5003 22.5286 48.4068 22.6844 48.2822C23.0115 48.0173 23.2764 47.7213 23.3076 47.2695C23.3076 47.2539 23.3076 47.2227 23.3231 47.2227C23.4634 47.1293 23.3855 46.9735 23.401 46.8644ZM21.9988 47.8148C21.9365 47.8459 21.8742 47.8615 21.8119 47.8771C21.7496 47.8927 21.6872 47.9238 21.6094 47.9394C21.5315 47.9394 21.4691 47.9394 21.3912 47.9238C21.3601 47.9238 21.3289 47.8771 21.2978 47.8771C21.0641 47.9083 20.9083 47.7369 20.7525 47.5967C20.659 47.5188 20.6434 47.363 20.5967 47.2383C20.5499 47.1137 20.4876 46.9735 20.4876 46.8488C20.5188 46.5372 20.6278 46.2724 20.8615 46.0231C21.0641 45.805 21.2822 45.7894 21.4691 45.805C21.5315 45.805 21.547 45.805 21.5626 45.805C21.8431 45.7427 22.03 45.914 22.2481 46.0387C22.3104 46.0698 22.3572 46.1789 22.3883 46.2568C22.4507 46.4593 22.5286 46.6463 22.513 46.8644C22.513 47.3007 22.3572 47.6122 21.9988 47.8148Z" fill="black"/>
<path d="M29.2435 46.8644C29.2435 46.584 29.2747 46.3035 29.1189 46.0387C29.0566 45.9296 28.9942 45.8361 28.9163 45.7426C28.7761 45.5401 28.5892 45.3999 28.371 45.2752C28.1997 45.1973 28.0439 45.0883 27.8569 45.0727C27.4518 45.026 27.0623 44.9792 26.6884 45.1818C26.5326 45.2752 26.3612 45.3687 26.221 45.4778C26.0652 45.6024 25.9094 45.7115 25.8627 45.9296C25.8159 46.0854 25.6757 46.2256 25.6757 46.3658C25.6913 46.7709 25.5355 47.1916 25.7692 47.5811C25.8315 47.6901 25.8627 47.8459 25.9561 47.9394C26.1275 48.1264 26.2833 48.3133 26.517 48.438C26.8286 48.6093 27.1558 48.7028 27.483 48.7184C27.7167 48.7184 27.9504 48.5938 28.1685 48.5314C28.3866 48.4691 28.5736 48.3445 28.7294 48.1887C28.8696 48.0329 29.0098 47.8771 29.1033 47.7057C29.1968 47.5187 29.2591 47.3162 29.2279 47.0981C29.2279 47.0046 29.2435 46.9267 29.2435 46.8644ZM28.4489 46.989C28.3866 47.3006 28.2931 47.5811 27.9815 47.7836C27.8257 47.8771 27.6544 47.9082 27.4986 47.9394C27.3428 47.9861 27.1402 47.9238 26.9844 47.7992C26.9221 47.7525 26.8442 47.7369 26.7663 47.6901C26.6417 47.5967 26.5793 47.4564 26.5326 47.3006C26.4859 47.1448 26.4391 47.0046 26.3768 46.8644C26.408 46.6151 26.517 46.4437 26.6261 46.2568C26.7975 45.9608 27.0312 45.8205 27.3583 45.8361C27.4518 45.8361 27.5453 45.8361 27.6388 45.8361C27.9192 45.8361 28.2464 46.1477 28.3399 46.4126C28.4334 46.5995 28.4957 46.8021 28.4489 46.989Z" fill="black"/>
<path d="M18.6959 45.4622C18.5557 45.2908 18.3687 45.1195 18.1662 45.0883C17.7455 45.0104 17.3249 44.9792 16.9665 45.2753C16.8886 45.3376 16.7952 45.3687 16.7017 45.4155C16.6861 45.2908 16.6861 45.1974 16.6861 45.0883C16.3901 45.0883 16.1096 45.0883 15.8136 45.0883C15.8136 46.2724 15.8136 47.4409 15.8136 48.6094C16.1096 48.6094 16.3901 48.6094 16.6861 48.6094C16.6861 48.0485 16.6861 47.4876 16.6861 46.9423C16.6861 46.693 16.6549 46.4593 16.7952 46.2256C16.8886 46.0698 16.9665 45.914 17.1379 45.8361C17.2002 45.805 17.2937 45.8361 17.3249 45.805C17.5118 45.618 17.6832 45.805 17.7923 45.8673C17.9481 45.9452 18.1039 46.1322 18.0415 46.3659C18.026 46.397 18.0415 46.4593 18.0571 46.4749C18.1973 46.5684 18.1506 46.7086 18.1506 46.8332C18.1506 47.363 18.1506 47.9083 18.1506 48.438C18.1506 48.5003 18.1506 48.5626 18.1662 48.6405C18.431 48.6405 18.6803 48.6405 18.9452 48.6405C18.9452 48.5626 18.9452 48.5003 18.9452 48.438C18.9452 47.6746 18.9296 46.9267 18.9452 46.1633C18.9296 45.8829 18.8673 45.6648 18.6959 45.4622Z" fill="black"/>
<path d="M37.1737 45.0727C37.0179 45.0571 36.9556 45.1506 36.9088 45.2441C36.7842 45.4934 36.6751 45.7427 36.5661 46.0075C36.4414 46.3035 36.3324 46.5995 36.1922 46.88C36.1143 47.0202 36.1298 47.2383 35.8961 47.2539C35.6001 46.5372 35.3041 45.8206 34.9925 45.0727C34.7588 45.0727 34.4784 45.0727 34.1668 45.0727C34.2291 45.2441 34.2602 45.4155 34.3226 45.5713C34.416 45.8205 34.5407 46.0542 34.6342 46.3035C34.6809 46.4282 34.7121 46.5684 34.7744 46.693C34.8367 46.8488 34.9146 46.989 34.9769 47.1293C35.0392 47.2539 35.1016 47.3941 35.1483 47.5188C35.2418 47.7369 35.3508 47.955 35.4132 48.1887C35.4599 48.3601 35.4287 48.5315 35.3197 48.7028C35.1795 48.921 35.1016 49.1546 34.9925 49.3883C34.9302 49.5286 34.8679 49.6844 34.8055 49.8713C35.0704 49.8713 35.3041 49.8869 35.5378 49.8557C35.6001 49.8557 35.678 49.7623 35.7248 49.6844C35.7871 49.5753 35.8182 49.4507 35.865 49.326C35.9585 49.1391 36.0831 48.9521 36.161 48.7651C36.2545 48.547 36.3168 48.3289 36.3947 48.1108C36.4414 48.0173 36.4882 47.9083 36.5349 47.8148C36.5972 47.7057 36.6596 47.6122 36.7063 47.5188C36.753 47.3941 36.7842 47.2695 36.8309 47.1604C36.9244 46.9579 37.0491 46.7553 37.1425 46.5528C37.1893 46.4593 37.2204 46.3658 37.2516 46.2724C37.2983 46.1477 37.3295 46.0387 37.3918 45.914C37.4541 45.7894 37.532 45.6648 37.5943 45.5401C37.6722 45.3843 37.7346 45.2285 37.7969 45.0571C37.6255 45.0727 37.3918 45.0883 37.1737 45.0727Z" fill="black"/>
<path d="M8.67802 45.9296C8.89613 45.7582 9.14541 45.8206 9.37911 45.8206C9.56607 45.8206 9.78419 45.7738 9.95557 45.9296C10.0491 46.0231 10.1581 46.0854 10.236 46.1477C10.4697 46.0231 10.6878 45.8985 10.9215 45.7738C10.8592 45.7115 10.7969 45.6492 10.7346 45.5869C10.532 45.322 10.236 45.2129 9.95557 45.0883C9.79977 45.026 9.58165 45.0416 9.41027 45.0416C9.09868 45.0571 8.78708 45.026 8.47548 45.1662C8.28852 45.2597 8.11714 45.3532 7.94576 45.4778C7.72764 45.6492 7.57184 45.8673 7.47836 46.1322C7.38488 46.3659 7.2914 46.5995 7.2914 46.8488C7.2914 47.0202 7.33814 47.2072 7.40046 47.363C7.46278 47.5655 7.5251 47.7992 7.66532 47.9394C7.89902 48.1731 8.08598 48.4536 8.4599 48.547C8.70918 48.6094 8.97403 48.6717 9.22331 48.7184C9.51933 48.7652 9.83093 48.6405 10.1425 48.5315C10.4385 48.4224 10.6411 48.2354 10.8748 48.0173C10.7657 47.9238 10.6567 47.8459 10.5632 47.768C10.4541 47.6901 10.3451 47.6278 10.2516 47.5499C10.0958 47.7369 9.65955 47.955 9.41027 47.955C9.19216 47.955 8.97404 47.9394 8.7715 47.8615C8.4599 47.7369 8.1483 47.3318 8.16388 46.9579C8.16388 46.7709 8.17946 46.5995 8.25736 46.4282C8.33526 46.21 8.49106 46.0698 8.67802 45.9296Z" fill="black"/>
<path d="M0 44.6988C0.233699 44.6988 0.451818 44.7144 0.669937 44.6988C0.825736 44.6832 0.872477 44.7455 0.872477 44.9013C0.872477 46.0698 0.872477 47.2227 0.872477 48.3912C0.872477 48.4691 0.872476 48.5315 0.888056 48.6094C1.15291 48.6094 1.40219 48.6094 1.68263 48.6094C1.68263 48.5159 1.68263 48.4536 1.68263 48.3757C1.68263 47.2227 1.68263 46.0698 1.68263 44.9169C1.68263 44.73 1.72937 44.6832 1.91633 44.6832C2.11887 44.6988 2.33699 44.6832 2.53953 44.6832C2.53953 44.3872 2.53953 44.1068 2.53953 43.8419C1.69821 43.8419 0.856896 43.8419 0.0311606 43.8419C7.12728e-07 44.1379 0 44.4184 0 44.6988Z" fill="black"/>
<path d="M41.4738 47.768C41.3024 47.768 41.2556 47.7213 41.2556 47.5343C41.2556 46.4593 41.2556 45.3843 41.2556 44.3093C41.2556 44.1535 41.2556 43.9977 41.2556 43.8575C40.9752 43.8575 40.7259 43.8575 40.4611 43.8575C40.4611 45.4466 40.4611 47.0358 40.4611 48.6249C41.1777 48.6249 41.8633 48.6249 42.5799 48.6249C42.5799 48.3289 42.5799 48.0641 42.5799 47.768C42.206 47.768 41.8477 47.768 41.4738 47.768Z" fill="black"/>
<path d="M44.2626 44.5586C44.2626 44.5118 44.2626 44.4651 44.2626 44.4028C44.2626 44.2002 44.2626 44.0133 44.2626 43.8107C43.9665 43.8107 43.6861 43.8107 43.4057 43.8107C43.4057 44.1379 43.4057 44.4339 43.4057 44.7455C43.4057 45.0727 43.4057 45.0727 43.0941 45.0727C43.0473 45.0727 43.0162 45.0727 42.9694 45.0883C42.9694 45.3376 42.9694 45.5713 42.9694 45.8361C43.1252 45.8361 43.2499 45.8361 43.4057 45.8361C43.4057 46.7709 43.4057 47.7057 43.4057 48.6249C43.7017 48.6249 43.9665 48.6249 44.2626 48.6249C44.2626 47.6901 44.2626 46.7553 44.2626 45.8205C44.4339 45.8205 44.5742 45.8205 44.7144 45.8205C44.7144 45.5713 44.7144 45.3376 44.7144 45.1194C44.543 45.0883 44.3405 45.1194 44.2781 45.026C44.2002 44.9169 44.2626 44.7144 44.2626 44.5586Z" fill="black"/>
<path d="M24.0866 48.6249C24.1177 48.6249 24.1489 48.6249 24.18 48.6249C24.3982 48.6249 24.6163 48.6249 24.85 48.6249C24.85 46.989 24.85 45.3687 24.85 43.7484C24.5851 43.7484 24.3358 43.7484 24.0866 43.7484C24.0866 45.3843 24.0866 46.989 24.0866 48.6249Z" fill="black"/>
<path d="M15.8915 14.2401C16.0941 14.0998 16.172 13.8973 16.2654 13.6636C16.3745 13.3987 16.2343 13.2118 16.1875 12.9781C16.172 12.9002 16.1096 12.8067 16.0317 12.7444C15.8604 12.6197 15.6734 12.5107 15.5176 12.4172C14.614 12.76 14.5205 13.3676 14.91 14.131C14.9723 14.1777 15.0502 14.2089 15.1125 14.2556C15.393 14.4582 15.6111 14.4426 15.8915 14.2401Z" fill="black"/>
</svg>
