<svg width="116" height="119" viewBox="0 0 116 119" fill="none" xmlns="http://www.w3.org/2000/svg">
<path d="M76 51.1755C76.7408 52.2866 77.5556 53.3977 78.2963 54.5088C79.2963 56.0273 80.2963 57.5088 81.2963 59.0273C82.0741 60.2125 82.8889 61.3607 83.7037 62.5458C84.3704 63.5088 84.963 64.5088 85.6297 65.5088C86.2593 66.4718 87.0371 67.3606 87.5926 68.3606C87.8889 68.8792 88.1852 68.8421 88.6297 68.8421C93.2963 68.8421 98 68.8421 102.667 68.8421C103.37 68.8421 103.37 68.8421 103.37 68.1384C103.37 45.694 103.37 23.2125 103.37 0.768051C103.37 0.434717 103.259 0.249541 102.963 0.175467C102.815 0.13843 102.63 0.138428 102.482 0.138428C97.8889 0.138428 93.2593 0.138428 88.6667 0.138428C88.0371 0.138428 88 0.138421 88 0.768051C88 4.32361 88 7.87917 88 11.4347C88 22.6569 88 33.8421 88 45.0644C88 45.2495 87.9259 45.4347 87.8889 45.6199C87.2222 45.5829 87.1111 45.0273 86.8519 44.694C86.5185 44.2866 86.2963 43.8051 86 43.3606C85.5926 42.731 85.1482 42.1384 84.7037 41.5458C84.4074 41.1014 84.1482 40.6199 83.8519 40.1755C83.4445 39.5829 83 38.9903 82.5926 38.3977C82.2593 37.9162 82 37.4347 81.6667 36.9532C81.3704 36.5088 81.0371 36.0644 80.7408 35.5829C80.3334 34.9903 80 34.3606 79.5926 33.7681C79 32.8792 78.4074 32.0273 77.7778 31.1384C77.4445 30.6569 77.1482 30.2125 76.8148 29.731C76.3334 29.0273 75.8519 28.3606 75.3704 27.6569C75.0741 27.2125 74.7778 26.731 74.4815 26.2866C74.1482 25.8051 73.8148 25.3606 73.5185 24.9162C73.1111 24.3236 72.7778 23.694 72.3704 23.1014C71.8889 22.3607 71.3334 21.6199 70.8519 20.8792C70.4445 20.2866 70.0371 19.694 69.6297 19.1014C69.3334 18.694 69.0371 18.3236 68.7778 17.9162C68.3334 17.2495 67.9259 16.5829 67.5185 15.9162C67.2222 15.4718 66.9259 15.0644 66.6297 14.6199C66.4074 14.2495 66.2593 13.8421 66 13.5088C65.7037 13.0644 65.3334 12.694 65.0371 12.2866C64.5926 11.6569 64.1852 10.9903 63.7778 10.3607C63.4074 9.8051 63 9.32361 62.6667 8.76805C62.2593 8.13842 61.9259 7.50879 61.5185 6.87916C61.1111 6.24953 60.6296 5.61991 60.2222 4.99028C59.7778 4.32362 59.3334 3.61991 58.8519 2.91621C58.4074 2.28658 58 1.6199 57.5556 0.990275C57.1852 0.471757 56.7408 0.138428 56 0.138428C53.2222 0.175465 50.4445 0.13843 47.6667 0.175467C44.8889 0.212504 42.1111 -0.0838013 39.3704 0.582865C38.8148 0.731014 38.2222 0.768055 37.6667 0.842129C36.4815 1.02731 35.2963 1.2125 34.0741 1.36065C33.4815 1.43472 32.8889 1.54584 32.2593 1.61991C31.7037 1.69398 31.1852 1.80509 30.6296 1.87916C29.9259 1.99027 29.2222 2.06435 28.4815 2.17546C28 2.24954 27.5185 2.32362 27.0371 2.39769C25.8148 2.58287 24.5926 2.76806 23.3704 2.95324C22.7778 3.02732 22.1852 3.13842 21.5926 3.2125C20.8889 3.32361 20.2222 3.43472 19.5185 3.54583C18.4445 3.69398 17.3704 3.87917 16.3334 4.02732C15.963 4.06435 15.5926 4.10139 15.2593 4.13842C15.2593 4.17546 15.2593 4.2125 15.2593 4.24954C26.5926 4.24954 37.9259 4.24954 49.2963 4.24954C49.2963 24.3977 49.2963 44.4718 49.2963 64.6199C38 64.6199 26.7778 64.6199 15.5185 64.6199C15.5556 64.731 15.6296 64.7681 15.6667 64.7681C16.4445 64.8792 17.2593 64.9903 18.0371 65.1014C18.1482 65.1014 18.2593 65.1014 18.3334 65.1384C19.2222 65.2866 20.1111 65.4718 21 65.6199C21.2593 65.6569 21.5185 65.6199 21.7408 65.6569C22.5926 65.8051 23.4445 65.9903 24.3334 66.1384C25.1482 66.2495 25.9259 66.3236 26.7408 66.4347H26.7778C27.5556 66.5829 28.3334 66.7681 29.1111 66.9162C29.5926 66.9903 30.0741 66.9532 30.5556 67.1384C31.2222 67.3606 31.9259 67.3606 32.6297 67.4718C33.4445 67.5829 34.2222 67.657 35.0371 67.7681H35.0741C35.8889 67.9532 36.7037 68.1384 37.5185 68.2866C38 68.3607 38.5185 68.3607 39 68.5088C39.7778 68.731 40.6667 68.8051 41.5185 68.8051C46.4815 68.8421 51.4815 68.8051 56.4445 68.8051C56.6297 68.8051 56.7778 68.8051 57 68.7681C57 53.6199 57 38.5458 57 23.2866C57.2593 23.4347 57.4445 23.5088 57.5185 23.6569C57.8148 24.1014 58.0741 24.5458 58.3704 24.9903C58.963 25.8792 59.5926 26.731 60.1482 27.5829C60.4445 28.0273 60.7408 28.5458 61.0371 28.9903C61.3334 29.4347 61.7037 29.8421 61.963 30.2495C62.3704 30.8792 62.7408 31.5458 63.1482 32.1384C63.6297 32.8421 64.1482 33.5088 64.6297 34.2125C65.0371 34.8421 65.4074 35.5088 65.8148 36.1384C66.2963 36.8421 66.8148 37.5088 67.2963 38.2125C68.2222 39.6199 69.1482 41.0273 70.0741 42.3977C71.1111 43.9162 72.1482 45.4347 73.1852 46.9532C74.1852 48.3977 75.0741 49.8051 76 51.1755Z" fill="white"/>
<path d="M3.33339 96.2866C3.7408 96.2866 3.85191 96.0644 3.85191 95.731C3.85191 95.2496 3.85191 94.7681 3.85191 94.2866C3.85191 93.0644 3.85191 91.8422 3.85191 90.657C3.85191 90.3236 3.7408 89.9533 3.7408 89.6199C3.7408 89.1385 3.77783 88.657 3.85191 88.1755C3.88895 87.9903 3.92598 87.694 4.07413 87.6199C4.29635 87.5088 4.48154 87.694 4.51858 87.9533C4.55561 88.0273 4.70376 88.0644 4.7408 88.1755C5.0371 88.5459 5.29636 88.9533 5.59265 89.3236C6.18524 89.9903 6.81488 90.6199 7.37043 91.3236C8.62969 92.8421 9.88895 94.4347 11.1482 95.9533C11.3334 96.1755 11.5556 96.3607 11.8889 96.3236C12.6297 96.2866 13.3334 96.2866 14.0741 96.3236C14.4815 96.3236 14.6297 96.2125 14.5927 95.8051C14.5927 93.9162 14.5927 92.0644 14.5927 90.1755C14.5927 87.694 14.5927 85.2125 14.5927 82.731C14.5927 82.1385 14.4815 82.0273 13.8889 82.0273C13.3334 82.0273 12.7778 82.0273 12.1852 82.0273C11.5927 82.0273 11.5927 82.0644 11.5186 82.657C11.5186 82.7681 11.5186 82.8792 11.5186 82.9533C11.5186 84.2125 11.5186 85.4347 11.5186 86.694C11.5186 87.8792 11.5186 89.0273 11.5186 90.2125C11.5186 90.3977 11.3704 90.657 11.2223 90.731C11.1482 90.8051 10.8519 90.657 10.7408 90.5088C9.7408 89.3236 8.77783 88.1385 7.77783 86.9533C7.03709 86.0273 6.25932 85.1014 5.48154 84.2125C5.07413 83.731 4.70376 83.1755 4.25932 82.731C4.00006 82.4347 3.77784 82.0644 3.25932 82.0644C2.55561 82.1014 1.81487 82.0644 1.07413 82.0644C0.740798 82.0644 0.592651 82.2496 0.592651 82.6199C0.592651 85.731 0.592651 88.8422 0.592651 91.9533C0.592651 93.4347 0.592651 94.8792 0.592651 96.4347C1.62969 96.2866 2.48154 96.2866 3.33339 96.2866Z" fill="white"/>
<path d="M115.852 91.0643C115.593 90.1754 115 89.4717 114.222 88.9532C113.889 88.731 113.963 88.5458 114.148 88.2495C114.482 87.731 114.889 87.2495 115.037 86.6939C115.185 86.1013 115.111 85.4717 115.074 84.8421C115.037 84.5087 114.889 84.1754 114.704 83.9162C114.074 83.0273 113.185 82.4717 112.111 82.2865C111.259 82.1384 110.37 82.0273 109.519 82.0273C107.815 81.9902 106.111 82.0273 104.407 81.9902C103.926 81.9902 103.704 82.2125 103.704 82.6569C103.704 86.9532 103.704 91.2865 103.704 95.5828C103.704 95.805 103.704 96.0273 103.704 96.3236C104.074 96.3236 104.37 96.3236 104.667 96.3236C105.704 96.3236 106.704 96.3606 107.741 96.3236C109.741 96.2125 111.815 96.6939 113.778 95.768C114.037 95.6199 114.333 95.5458 114.593 95.3236C115.482 94.5828 115.963 93.6569 116 92.5088C115.963 92.0273 115.963 91.5088 115.852 91.0643ZM106.889 84.8051C107.37 84.8051 107.741 84.8051 108.111 84.8051C109.074 84.8051 110.074 84.768 111.037 84.8051C111.556 84.8051 112.148 85.3236 112.222 85.8421C112.407 86.9162 112 87.9162 110.667 87.8791C109.815 87.8421 108.963 87.9902 108.111 87.9532C107.778 87.9532 107.333 88.1384 107.037 87.768C106.963 87.6939 106.889 87.6199 106.889 87.5458C106.852 86.6569 106.889 85.768 106.889 84.8051ZM111.741 93.3976C111.444 93.5088 111.111 93.5828 110.778 93.6199C110.259 93.6569 109.741 93.6199 109.222 93.6199C108.63 93.6199 108 93.6199 107.407 93.6199C106.963 93.6199 106.815 93.4717 106.815 93.0273C106.815 92.3236 106.852 91.6569 106.815 90.9532C106.815 90.5828 106.963 90.4347 107.333 90.4347C108.556 90.4347 109.778 90.3976 111 90.4347C111.704 90.4717 112.407 90.9902 112.593 91.8421C112.778 92.3236 112.407 93.1754 111.741 93.3976Z" fill="white"/>
<path d="M44.8889 93.4347C42.7408 93.4347 40.5926 93.4347 38.4445 93.4347C37.8889 93.4347 37.3334 93.4347 36.7778 93.3606C36.4445 93.3236 36.3704 93.1013 36.6667 92.8421C37.1111 92.4347 37.5926 92.1013 38 91.6939C39.2963 90.4717 40.5556 89.2495 41.8519 88.0643C42.8519 87.1384 43.9259 86.2495 44.9259 85.3606C45.2222 85.1013 45.5556 84.805 45.5185 84.3236C45.4815 83.768 45.5185 83.2125 45.5185 82.6569C45.5185 82.1754 45.3334 81.9902 44.8519 81.9902C44.4445 81.9902 44.0371 81.9902 43.5926 81.9902C39.9259 81.9902 36.2593 81.9902 32.5926 81.9902C32.2963 81.9902 32.1482 82.1013 32.1111 82.3606C32.0741 82.9902 32 83.6569 32.0741 84.2865C32.1482 85.1013 32.2222 85.0643 33.0371 85.0643C35.1852 85.0643 37.3704 85.0643 39.5185 85.0643C39.9259 85.0643 40.2963 85.0643 40.7037 85.0643C40.7408 85.1384 40.7778 85.1754 40.8148 85.2495C40.7037 85.3976 40.5926 85.5828 40.4815 85.6939C40.1482 85.9902 39.7778 86.2495 39.4445 86.5458C38.6667 87.2125 37.8889 87.9162 37.1482 88.5828C36.2222 89.3976 35.2963 90.1754 34.4074 90.9532C33.6667 91.5828 32.963 92.2495 32.2593 92.8791C31.8148 93.2865 31.3704 93.6939 31.4815 94.3976C31.5556 94.8421 31.5556 95.2495 31.5556 95.6939C31.5556 96.2124 31.5556 96.2865 32.1111 96.2865C36.1852 96.2865 40.2222 96.2865 44.2963 96.2865C44.7037 96.2865 45.1482 96.2865 45.6667 96.2865C45.6667 95.5088 45.6667 94.768 45.6667 94.0643C45.5556 93.4347 45.5556 93.4347 44.8889 93.4347Z" fill="white"/>
<path d="M21.963 85.0642C24.0741 85.0642 26.1482 85.0642 28.2593 85.0642C28.7037 85.0642 28.8889 84.8791 28.8889 84.4346C28.8889 83.842 28.8889 83.2494 28.8889 82.6568C28.8889 82.0272 28.8148 81.9531 28.2222 81.9531C25.1482 81.9531 22.0371 81.9531 18.963 81.9531C18.1852 81.9531 18.0741 82.0642 18.0741 82.6939C18.0741 86.9902 18.0741 91.3235 18.0741 95.6198C18.0741 95.805 18.0741 96.0272 18.0741 96.2124C18.2593 96.2494 18.3704 96.2494 18.4445 96.2494C21.7778 96.2494 25.1482 96.2494 28.4815 96.2494C28.7778 96.2494 28.8889 96.1013 28.8889 95.805C28.8889 95.2124 28.8889 94.6198 28.8889 94.0272C28.8889 93.4346 28.8148 93.3605 28.2593 93.3605C26.3334 93.3605 24.4445 93.3605 22.5185 93.3605C22.2593 93.3605 22 93.3605 21.7778 93.3605C21.4445 93.3235 21.2593 93.1383 21.2593 92.7679C21.2593 92.1383 21.2593 91.5457 21.2593 90.9161C21.2593 90.5087 21.4445 90.3605 21.8519 90.3605C23.5556 90.3605 25.2963 90.3605 27 90.3605C27.1852 90.3605 27.3334 90.3605 27.5926 90.3605C27.5926 89.805 27.5926 89.3235 27.5926 88.805C27.5926 87.6568 27.5926 87.6568 26.4445 87.6568C24.963 87.6568 23.4445 87.6939 21.963 87.6568C21.7408 87.6568 21.2963 87.4346 21.2963 87.2865C21.2222 86.5457 21.2593 85.805 21.2593 85.0642C21.5556 85.1013 21.7408 85.0642 21.963 85.0642Z" fill="white"/>
<path d="M64.2223 96.2866C64.0371 95.8791 63.889 95.5828 63.7778 95.2865C63.5556 94.8051 63.3334 94.3236 63.1112 93.8421C63.0001 93.5458 62.926 93.2125 62.7778 92.9162C62.5556 92.3977 62.2593 91.8791 62.0371 91.3606C61.8149 90.8421 61.6297 90.3236 61.4075 89.8051C61.1853 89.3236 60.926 88.8791 60.7038 88.3977C60.4075 87.768 60.1853 87.1014 59.926 86.4717C59.8149 86.2125 59.7408 85.9903 59.6297 85.731C59.4816 85.3977 59.3334 85.0643 59.1853 84.731C58.963 84.2495 58.7778 83.768 58.5556 83.2865C58.4445 83.0273 58.3704 82.6939 58.2223 82.4717C58.1112 82.2865 57.8519 82.0273 57.6667 82.0273C56.7778 81.9903 55.8519 81.9903 54.963 82.0273C54.7408 82.0273 54.4445 82.1754 54.3704 82.3236C54.0371 83.0273 53.7778 83.731 53.5186 84.4347C53.4075 84.731 53.3334 85.0273 53.1853 85.2865C52.963 85.731 52.6667 86.1754 52.4815 86.6199C52.1852 87.3236 51.926 88.0273 51.6297 88.768C51.5186 89.0643 51.4075 89.3606 51.2964 89.6199C51.1482 89.9162 50.963 90.2125 50.8519 90.5088C50.7408 90.8051 50.6667 91.1384 50.5556 91.4347C50.3334 91.9532 50.0371 92.4347 49.8149 92.9532C49.5927 93.4347 49.4445 93.9532 49.2593 94.4347C49.1482 94.694 49.0371 94.9903 48.889 95.2495C48.7408 95.5829 48.5927 95.9162 48.4075 96.2866C49.4815 96.2866 50.4815 96.2866 51.4815 96.2866C51.5556 96.2866 51.6297 96.2125 51.6667 96.1384C51.926 95.6569 52.2223 95.2125 52.4075 94.694C52.5556 94.3236 52.7778 94.1384 53.1482 94.1384C55.2593 94.1384 57.3704 94.1384 59.4815 94.1384C59.8519 94.1384 60.0741 94.3236 60.1853 94.694C60.3334 95.1384 60.5556 95.6199 60.7778 96.0273C60.8519 96.1384 61.0371 96.2495 61.1482 96.2866C62.1482 96.2866 63.1482 96.2866 64.2223 96.2866ZM58.0001 91.4717C56.8889 91.4717 55.7408 91.4717 54.6297 91.4717C54.4445 91.4717 54.1112 91.3977 54.1112 91.3236C54.0741 91.0643 54.0741 90.768 54.1482 90.5088C54.3704 89.9162 54.6297 89.3236 54.889 88.731C54.963 88.5458 55.0741 88.3977 55.1482 88.2125C55.4075 87.694 55.6297 87.1384 55.889 86.6199C56.0001 86.3606 56.1482 86.1384 56.2593 85.8791C56.3334 85.8791 56.4075 85.8791 56.4816 85.8791C56.6667 86.2495 56.8519 86.5828 57.0371 86.9532C57.2964 87.5088 57.5556 88.0273 57.7778 88.5828C58.0001 89.1014 58.1852 89.6199 58.3704 90.1384C58.4445 90.3606 58.5927 90.6199 58.6297 90.8421C58.6297 91.3977 58.5556 91.4717 58.0001 91.4717Z" fill="white"/>
<path d="M96.7778 94.5827C96.926 94.9901 97.1112 95.3605 97.2963 95.7309C97.4074 95.9531 97.5926 96.2494 97.7778 96.2494C98.7408 96.2864 99.7038 96.2864 100.704 96.2864C100.667 96.0272 100.667 95.842 100.593 95.6568C100.259 94.879 99.926 94.1383 99.5926 93.3976C99.2963 92.7309 99.0371 92.0272 98.7408 91.3605C98.4074 90.5827 98.0741 89.842 97.7408 89.0642C97.5186 88.5827 97.3334 88.0642 97.1112 87.5827C96.8889 87.1013 96.6297 86.6198 96.4445 86.1013C96.2223 85.5457 96.0371 84.9901 95.8149 84.4346C95.5926 83.842 95.3334 83.2494 95.0371 82.6938C94.8519 82.3605 94.8149 81.9161 94.2223 81.9531C93.4075 82.0272 92.5926 81.9531 91.7778 81.9531C91.5556 81.9531 91.2593 82.0642 91.1112 82.2124C90.8889 82.5087 90.7408 82.842 90.6297 83.2124C90.2963 83.9901 90.0371 84.7679 89.7037 85.5457C89.2223 86.6938 88.7037 87.8049 88.1852 88.9531C87.963 89.5087 87.7408 90.0642 87.5186 90.5827C87.1112 91.5087 86.7408 92.4346 86.3334 93.3605C86.0741 93.9161 85.8149 94.4346 85.5926 95.0272C85.4445 95.4346 85.2963 95.842 85.1482 96.2864C86.2593 96.2864 87.3334 96.2864 88.3334 96.2864C88.5556 95.7309 88.7408 95.2124 89 94.7309C89.1852 94.3975 89.4074 94.1753 89.8519 94.1753C91.926 94.1753 94 94.1753 96.0741 94.1753C96.4075 94.1383 96.6667 94.2494 96.7778 94.5827ZM94.8889 91.4716C93.6297 91.4716 92.4074 91.4716 91.1482 91.4716C90.963 91.4716 90.7408 91.2864 90.4815 91.1383C91.2593 89.3975 92.0371 87.7309 92.8149 86.0272C92.8519 85.9531 93 85.9161 93.1482 85.842C93.4445 86.5087 93.7408 87.1753 94.0371 87.842C94.4445 88.842 94.8519 89.842 95.2963 90.8049C95.4075 91.1383 95.2223 91.4716 94.8889 91.4716Z" fill="white"/>
<path d="M72.5926 96.2865C75.8889 96.2865 79.1852 96.2865 82.4815 96.2865C82.8149 96.2865 82.926 96.1013 82.926 95.879C82.926 95.2124 82.963 94.5457 82.926 93.9161C82.926 93.5828 82.7408 93.4346 82.3704 93.4346C80.2963 93.4716 78.2223 93.4346 76.1482 93.4346C75.3334 93.4346 75.3334 93.3976 75.3334 92.5828C75.3334 89.2494 75.3334 85.9161 75.3334 82.5828C75.3334 82.1754 75.1112 81.9531 74.7037 81.9531C74.0371 81.9531 73.4075 81.9531 72.7408 81.9531C72.3704 81.9531 72.1482 82.1013 72.1482 82.5087C72.1482 82.9902 72.1482 83.4346 72.1482 83.9161C72.1482 86.805 72.1482 89.6939 72.1482 92.5828C72.1482 93.805 72.1482 94.9902 72.1482 96.2494C72.4075 96.2865 72.4815 96.2865 72.5926 96.2865Z" fill="white"/>
<path d="M79.8888 107.324C79.1851 107.324 78.5185 107.324 77.8518 107.324C77.8518 107.472 77.8518 107.583 77.8148 107.694C77.7777 107.842 77.7777 108.027 77.7037 108.064C77.5925 108.101 77.4074 108.064 77.2962 107.953C76.8148 107.546 76.2962 107.287 75.6666 107.25C74.7037 107.213 73.7777 107.176 72.8888 107.805C71.9259 108.509 71.3333 109.472 71.1481 110.62C70.9629 111.805 71.1481 112.99 71.8888 114.027C72.2592 114.546 72.7037 114.953 73.2962 115.287C73.5925 115.435 73.8888 115.435 74.1481 115.583C74.9999 116.064 75.8148 115.657 76.6296 115.435C77 115.324 77.2962 115.027 77.6296 114.805C78.1111 115.879 77.2222 117.027 76.1851 117.176C75.7036 117.25 75.2222 117.213 74.7777 117.176C74.5555 117.176 74.3333 117.064 74.1481 116.99C73.8148 116.879 73.5185 116.657 73.1851 116.62C72.7036 116.546 72.2222 116.583 71.7407 116.583C71.5925 116.583 71.4814 116.62 71.2962 116.62C71.3333 116.805 71.3703 116.953 71.4444 117.102C71.8148 117.805 72.4074 118.287 73.074 118.657C73.4444 118.842 73.9259 118.916 74.3703 118.953C75.037 118.99 75.7036 118.916 76.3703 118.99C77.1111 119.064 77.7036 118.694 78.2222 118.398C78.8888 117.99 79.4074 117.287 79.6296 116.509C79.7777 115.916 79.8888 115.287 79.8888 114.657C79.9259 112.361 79.8888 110.027 79.8888 107.731C79.8888 107.583 79.8888 107.472 79.8888 107.324ZM77.2222 113.361C76.5925 113.99 75.6296 114.139 74.7407 113.731C74.4814 113.62 74.1851 113.546 73.9629 113.361C73.7777 113.213 73.6666 112.953 73.4814 112.768C73.1111 112.361 73.2592 111.842 73.2222 111.435C73.2222 110.916 73.1111 110.398 73.4814 110.027C73.8888 109.583 74.2592 109.027 75 109.064C75.2962 109.064 75.5555 109.101 75.8518 109.064C76.6666 108.953 77.1111 109.509 77.5185 110.027C78.1111 110.805 77.9629 112.583 77.2222 113.361Z" fill="white"/>
<path d="M114.037 104.583C114.037 105.62 114.037 106.694 114.037 107.731C114.037 107.842 113.963 107.991 113.889 108.065C113.778 108.102 113.593 108.102 113.519 108.028C113.037 107.472 112.37 107.25 111.667 107.25C111.074 107.25 110.407 107.139 109.926 107.361C109.296 107.62 108.63 107.991 108.222 108.657C107.778 109.324 107.37 109.991 107.444 110.842C107.481 111.472 107.444 112.139 107.444 112.805C107.444 112.879 107.444 112.991 107.481 113.065C107.741 113.509 107.926 114.028 108.259 114.398C108.815 115.028 109.407 115.657 110.37 115.768C110.556 115.768 110.704 115.879 110.852 115.916C111.148 115.953 111.407 115.953 111.704 115.916C111.852 115.916 112 115.768 112.148 115.768C112.704 115.805 113.111 115.472 113.444 115.176C113.704 114.879 113.852 115.028 114.037 115.102C114.037 115.361 114.074 115.546 114.074 115.731C114.667 115.731 115.259 115.731 115.852 115.731C115.852 111.842 115.852 107.991 115.852 104.139C115.259 104.139 114.704 104.139 114.074 104.139C114.074 104.287 114.037 104.435 114.037 104.583ZM113.259 113.546C113.111 113.694 112.889 113.879 112.667 113.916C112.111 113.991 111.667 114.287 111 114.028C110.333 113.768 109.778 113.398 109.519 112.842C109.222 112.176 108.926 111.472 109.37 110.657C109.593 110.287 109.704 109.842 110.037 109.546C110.333 109.287 110.63 109.028 111.074 109.065C111.185 109.065 111.296 108.991 111.407 108.953C111.444 108.916 111.519 108.879 111.556 108.879C111.963 108.991 112.37 109.065 112.704 109.25C113.074 109.472 113.444 109.768 113.667 110.139C113.926 110.509 114 111.028 114.074 111.287C114.074 112.287 113.778 112.991 113.259 113.546Z" fill="white"/>
<path d="M35.0371 108.398C34.5186 107.842 34.0001 107.25 33.1482 107.213C32.5186 107.176 31.8519 107.102 31.2593 107.472C30.8889 107.694 30.4815 107.842 30.0371 108.102C30.0371 106.768 30.0371 105.472 30.0371 104.139C29.2963 104.139 28.6297 104.139 27.963 104.139C27.963 108.028 27.963 111.879 27.963 115.694C28.6667 115.694 29.3334 115.694 30 115.694C30 115.509 30 115.324 30 115.176C30 113.768 30 112.324 30 110.916C30 110.361 30.1852 109.879 30.5926 109.546C30.926 109.25 31.4075 109.065 31.8149 108.879C31.8889 108.842 32.0371 108.916 32.1482 108.953C32.2223 108.991 32.2963 109.065 32.3334 109.065C32.8149 109.065 33.0371 109.472 33.1852 109.768C33.4075 110.213 33.4445 110.768 33.4815 111.324C33.5186 112.657 33.4815 113.991 33.4815 115.324C33.4815 115.472 33.4815 115.62 33.5186 115.731C34.1482 115.731 34.7408 115.731 35.3334 115.731C35.3334 113.583 35.3334 111.435 35.3334 109.324C35.3334 108.991 35.2223 108.62 35.0371 108.398Z" fill="white"/>
<path d="M14.1111 107.953C13.7037 107.731 13.2963 107.435 12.8519 107.323C12.2593 107.175 11.6297 107.212 11 107.212C10.4445 107.212 9.81484 107.249 9.37039 107.583C8.85187 108.027 8.14817 108.286 7.85187 109.027C7.55558 109.731 7.11113 110.361 7.14817 111.175C7.14817 111.472 7.14817 111.805 7.14817 112.101C7.14817 112.694 7.37039 113.175 7.66669 113.694C8.14817 114.546 8.74076 115.175 9.66669 115.509C10.3704 115.768 11.0371 115.99 11.7778 115.99C12.2963 115.953 12.8148 115.805 13.2963 115.731H13.3334C13.7778 115.472 14.2222 115.212 14.6667 114.953C15.0371 114.731 15.1482 114.398 15.0741 114.101C14.6667 113.879 14.3334 113.694 14 113.546C13.8519 113.509 13.6667 113.509 13.5185 113.583C12.963 113.842 12.4445 114.249 11.7778 114.249C11.3334 114.249 10.963 114.212 10.5185 114.027C9.92595 113.805 9.59262 113.435 9.29632 112.99C8.96299 112.472 9.22224 112.027 9.81484 112.027C11.8148 112.027 13.8148 112.027 15.8148 112.027C16.0371 111.212 15.8889 110.435 15.5556 109.768C15.2222 109.064 14.8519 108.361 14.1111 107.953ZM11.2593 110.509C10.6667 110.509 10.1111 110.509 9.51854 110.509C9.18521 110.509 9.11113 110.361 9.25928 110.101C9.55558 109.657 9.92595 109.323 10.4445 109.027C11.0371 108.694 11.6297 108.768 12.1852 108.842C12.7408 108.879 13.2222 109.286 13.5556 109.768C13.6667 109.953 13.7778 110.175 13.9259 110.472C12.9259 110.509 12.0741 110.509 11.2593 110.509Z" fill="white"/>
<path d="M55.6297 111.546C55.6297 111.435 55.6297 111.398 55.6297 111.324C55.5556 110.879 55.5186 110.398 55.3334 109.991C55.1482 109.546 54.8519 109.139 54.5556 108.731C54.2964 108.398 54.0001 108.065 53.6297 107.842C53.0371 107.546 52.4815 107.213 51.7778 107.213C50.7408 107.176 49.7038 107.176 48.7778 107.805C48.5926 107.953 48.3704 108.065 48.1852 108.25C47.926 108.509 47.6297 108.805 47.4445 109.139C47.2223 109.546 46.8889 109.991 46.8889 110.435C46.8889 111.324 46.7038 112.213 47.0741 113.102C47.2593 113.583 47.5926 113.953 47.8519 114.361C48.1112 114.768 48.5186 115.028 48.963 115.287C49.6297 115.694 50.3334 115.805 51.0371 115.953C51.5556 116.028 52.1482 115.805 52.6667 115.694H52.7038C53.1112 115.435 53.5556 115.213 53.926 114.916C54.7038 114.287 55.3334 113.583 55.4075 112.509C55.4075 112.472 55.4075 112.398 55.4445 112.398C55.7778 112.176 55.5926 111.805 55.6297 111.546ZM52.2964 113.805C52.1482 113.879 52.0001 113.916 51.8519 113.954C51.7038 113.991 51.5556 114.065 51.3704 114.102C51.1852 114.102 51.0371 114.102 50.8519 114.065C50.7778 114.065 50.7038 113.954 50.6297 113.954C50.0741 114.028 49.7038 113.62 49.3334 113.287C49.1112 113.102 49.0741 112.731 48.963 112.435C48.8519 112.139 48.7038 111.805 48.7038 111.509C48.7778 110.768 49.0371 110.139 49.5927 109.546C50.0741 109.028 50.5927 108.991 51.0371 109.028C51.1852 109.028 51.2223 109.028 51.2593 109.028C51.926 108.879 52.3704 109.287 52.8889 109.583C53.0371 109.657 53.1482 109.916 53.2223 110.102C53.3704 110.583 53.5556 111.028 53.5186 111.546C53.5186 112.583 53.1482 113.324 52.2964 113.805Z" fill="white"/>
<path d="M69.5185 111.546C69.5185 110.879 69.5925 110.213 69.2222 109.583C69.074 109.324 68.9259 109.101 68.7407 108.879C68.4074 108.398 67.9629 108.064 67.4444 107.768C67.037 107.583 66.6666 107.324 66.2222 107.287C65.2592 107.176 64.3333 107.064 63.4444 107.546C63.074 107.768 62.6666 107.99 62.3333 108.25C61.9629 108.546 61.5925 108.805 61.4814 109.324C61.3703 109.694 61.037 110.027 61.037 110.361C61.074 111.324 60.7037 112.324 61.2592 113.25C61.4074 113.509 61.4814 113.879 61.7036 114.101C62.1111 114.546 62.4814 114.99 63.037 115.287C63.7777 115.694 64.5555 115.916 65.3333 115.953C65.8888 115.953 66.4444 115.657 66.9629 115.509C67.4814 115.361 67.9259 115.064 68.2962 114.694C68.6296 114.324 68.9629 113.953 69.1851 113.546C69.4074 113.101 69.5555 112.62 69.4814 112.101C69.4814 111.879 69.5185 111.694 69.5185 111.546ZM67.6296 111.842C67.4814 112.583 67.2592 113.25 66.5185 113.731C66.1481 113.953 65.7407 114.027 65.3703 114.101C65 114.213 64.5185 114.064 64.1481 113.768C63.9999 113.657 63.8148 113.62 63.6296 113.509C63.3333 113.287 63.1851 112.953 63.074 112.583C62.9629 112.213 62.8518 111.879 62.7037 111.546C62.7777 110.953 63.037 110.546 63.2962 110.101C63.7037 109.398 64.2592 109.064 65.037 109.101C65.2592 109.101 65.4814 109.101 65.7037 109.101C66.3703 109.101 67.1481 109.842 67.3703 110.472C67.5925 110.916 67.7407 111.398 67.6296 111.842Z" fill="white"/>
<path d="M44.4445 108.213C44.1112 107.805 43.6667 107.398 43.1852 107.324C42.1852 107.139 41.1852 107.064 40.3334 107.768C40.1482 107.916 39.926 107.99 39.7038 108.101C39.6667 107.805 39.6667 107.583 39.6667 107.324C38.963 107.324 38.2964 107.324 37.5927 107.324C37.5927 110.139 37.5927 112.916 37.5927 115.694C38.2964 115.694 38.963 115.694 39.6667 115.694C39.6667 114.361 39.6667 113.027 39.6667 111.731C39.6667 111.139 39.5927 110.583 39.926 110.027C40.1482 109.657 40.3334 109.287 40.7408 109.101C40.8889 109.027 41.1112 109.101 41.1852 109.027C41.6297 108.583 42.0371 109.027 42.2964 109.176C42.6667 109.361 43.0371 109.805 42.8889 110.361C42.8519 110.435 42.889 110.583 42.926 110.62C43.2593 110.842 43.1482 111.176 43.1482 111.472C43.1482 112.731 43.1482 114.027 43.1482 115.287C43.1482 115.435 43.1482 115.583 43.1852 115.768C43.8149 115.768 44.4075 115.768 45.0371 115.768C45.0371 115.583 45.0371 115.435 45.0371 115.287C45.0371 113.472 45.0001 111.694 45.0371 109.879C45.0001 109.213 44.8519 108.694 44.4445 108.213Z" fill="white"/>
<path d="M88.3703 107.287C87.9999 107.25 87.8518 107.472 87.7407 107.694C87.4444 108.287 87.1851 108.879 86.9259 109.509C86.6296 110.212 86.3703 110.916 86.037 111.583C85.8518 111.916 85.8888 112.435 85.3333 112.472C84.6296 110.768 83.9259 109.064 83.1851 107.287C82.6296 107.287 81.9629 107.287 81.2222 107.287C81.3703 107.694 81.4444 108.101 81.5925 108.472C81.8148 109.064 82.1111 109.62 82.3333 110.212C82.4444 110.509 82.5185 110.842 82.6666 111.138C82.8148 111.509 83 111.842 83.1481 112.175C83.2962 112.472 83.4444 112.805 83.5555 113.101C83.7777 113.62 84.037 114.138 84.1851 114.694C84.2962 115.101 84.2222 115.509 83.9629 115.916C83.6296 116.435 83.4444 116.99 83.1851 117.546C83.037 117.879 82.8888 118.25 82.7407 118.694C83.3703 118.694 83.9259 118.731 84.4814 118.657C84.6296 118.657 84.8148 118.435 84.9259 118.25C85.074 117.99 85.1481 117.694 85.2592 117.398C85.4814 116.953 85.7777 116.509 85.9629 116.064C86.1851 115.546 86.3333 115.027 86.5185 114.509C86.6296 114.287 86.7407 114.027 86.8518 113.805C87 113.546 87.1481 113.324 87.2592 113.101C87.3703 112.805 87.4444 112.509 87.5555 112.25C87.7777 111.768 88.074 111.287 88.2962 110.805C88.4074 110.583 88.4814 110.361 88.5555 110.138C88.6666 109.842 88.7407 109.583 88.8888 109.287C89.037 108.99 89.2222 108.694 89.3703 108.398C89.5555 108.027 89.7036 107.657 89.8518 107.25C89.4444 107.287 88.8888 107.324 88.3703 107.287Z" fill="white"/>
<path d="M20.6297 109.323C21.1482 108.916 21.7408 109.064 22.2963 109.064C22.7408 109.064 23.2593 108.953 23.6667 109.323C23.8889 109.546 24.1482 109.694 24.3334 109.842C24.8889 109.546 25.4074 109.249 25.963 108.953C25.8149 108.805 25.6667 108.657 25.5186 108.509C25.0371 107.879 24.3334 107.62 23.6667 107.323C23.2963 107.175 22.7778 107.212 22.3704 107.212C21.6297 107.249 20.8889 107.175 20.1482 107.509C19.7037 107.731 19.2963 107.953 18.8889 108.249C18.3704 108.657 18 109.175 17.7778 109.805C17.5556 110.361 17.3334 110.916 17.3334 111.509C17.3334 111.916 17.4445 112.361 17.5926 112.731C17.7408 113.212 17.8889 113.768 18.2223 114.101C18.7778 114.657 19.2223 115.323 20.1112 115.546C20.7037 115.694 21.3334 115.842 21.926 115.953C22.6297 116.064 23.3704 115.768 24.1112 115.509C24.8149 115.249 25.2963 114.805 25.8519 114.286C25.5926 114.064 25.3334 113.879 25.1112 113.694C24.8519 113.509 24.5926 113.361 24.3704 113.175C24 113.62 22.963 114.138 22.3704 114.138C21.8519 114.138 21.3334 114.101 20.8519 113.916C20.1112 113.62 19.3704 112.657 19.4075 111.768C19.4075 111.323 19.4445 110.916 19.6297 110.509C19.8149 109.99 20.1852 109.657 20.6297 109.323Z" fill="white"/>
<path d="M0 106.397C0.555556 106.397 1.07408 106.434 1.59259 106.397C1.96296 106.36 2.07408 106.508 2.07408 106.879C2.07408 109.657 2.07408 112.397 2.07408 115.175C2.07408 115.36 2.07408 115.508 2.11111 115.694C2.74074 115.694 3.33333 115.694 4 115.694C4 115.471 4 115.323 4 115.138C4 112.397 4 109.657 4 106.916C4 106.471 4.11111 106.36 4.55556 106.36C5.03704 106.397 5.55556 106.36 6.03704 106.36C6.03704 105.657 6.03704 104.99 6.03704 104.36C4.03704 104.36 2.03704 104.36 0.0740758 104.36C1.69432e-06 105.064 0 105.731 0 106.397Z" fill="white"/>
<path d="M98.5926 113.694C98.1852 113.694 98.0741 113.583 98.0741 113.138C98.0741 110.583 98.0741 108.027 98.0741 105.472C98.0741 105.101 98.0741 104.731 98.0741 104.397C97.4074 104.397 96.8148 104.397 96.1852 104.397C96.1852 108.175 96.1852 111.953 96.1852 115.731C97.8889 115.731 99.5185 115.731 101.222 115.731C101.222 115.027 101.222 114.397 101.222 113.694C100.333 113.694 99.4815 113.694 98.5926 113.694Z" fill="white"/>
<path d="M105.222 106.064C105.222 105.953 105.222 105.842 105.222 105.694C105.222 105.213 105.222 104.768 105.222 104.287C104.519 104.287 103.852 104.287 103.185 104.287C103.185 105.064 103.185 105.768 103.185 106.509C103.185 107.287 103.185 107.287 102.444 107.287C102.333 107.287 102.259 107.287 102.148 107.324C102.148 107.916 102.148 108.472 102.148 109.101C102.519 109.101 102.815 109.101 103.185 109.101C103.185 111.324 103.185 113.546 103.185 115.731C103.889 115.731 104.519 115.731 105.222 115.731C105.222 113.509 105.222 111.287 105.222 109.064C105.63 109.064 105.963 109.064 106.296 109.064C106.296 108.472 106.296 107.916 106.296 107.398C105.889 107.324 105.407 107.398 105.259 107.176C105.074 106.916 105.222 106.435 105.222 106.064Z" fill="white"/>
<path d="M57.2593 115.731C57.3334 115.731 57.4074 115.731 57.4815 115.731C58 115.731 58.5185 115.731 59.0741 115.731C59.0741 111.842 59.0741 107.991 59.0741 104.139C58.4445 104.139 57.8519 104.139 57.2593 104.139C57.2593 108.028 57.2593 111.842 57.2593 115.731Z" fill="white"/>
<path d="M37.7778 33.9903C38.2593 33.657 38.4444 33.1755 38.6667 32.6199C38.9259 31.9903 38.5926 31.5459 38.4815 30.9903C38.4444 30.8051 38.2963 30.5829 38.1111 30.4348C37.7037 30.1385 37.2593 29.8792 36.8889 29.657C34.7407 30.4718 34.5185 31.9162 35.4444 33.7311C35.5926 33.8422 35.7778 33.9162 35.9259 34.0274C36.5926 34.5088 37.1111 34.4718 37.7778 33.9903Z" fill="white"/>
</svg>
